<?xml version="1.0" encoding="UTF-8" standalone="no"?>
<!DOCTYPE svg PUBLIC "-//W3C//DTD SVG 1.1//EN" "http://www.w3.org/Graphics/SVG/1.1/DTD/svg11.dtd">
<svg width="100%" height="100%" viewBox="0 0 1080 274" version="1.1" xmlns="http://www.w3.org/2000/svg" xmlns:xlink="http://www.w3.org/1999/xlink" xml:space="preserve" xmlns:serif="http://www.serif.com/" style="fill-rule:evenodd;clip-rule:evenodd;stroke-linecap:round;stroke-linejoin:round;stroke-miterlimit:10;">
    <g id="Artboard1" transform="matrix(1,0,0,0.253704,0,0)">
        <rect x="0" y="0" width="1080" height="1080" style="fill:none;"/>
        <g transform="matrix(4.166667,0,0,16.423358,0,-1588.467153)">
            <path d="M19.8,153.228L19.8,134.676L36.69,134.676L36.69,138.045L40.059,138.045L40.059,141.414L43.428,141.414L43.428,153.228L50.188,153.228L50.188,138.045L46.797,138.045L46.797,134.676L43.428,134.676L43.428,131.307L46.797,131.307L46.797,127.916L50.188,127.916L50.188,112.733L46.797,112.733L46.797,109.364L43.428,109.364L43.428,105.972L13.063,105.972L13.063,153.228L19.8,153.228ZM19.8,127.916L19.8,112.733L40.059,112.733L40.059,116.102L43.428,116.102L43.428,124.547L40.059,124.547L40.059,127.916L19.8,127.916Z" style="fill:rgb(0,255,0);fill-rule:nonzero;"/>
        </g>
        <g transform="matrix(4.166667,0,0,16.423358,0,-1366.390511)">
            <path d="M78.191,139.706L78.191,136.337L81.56,136.337L81.56,132.968L84.928,132.968L84.928,129.599L74.799,129.599L74.799,132.968L64.67,132.968L64.67,129.599L61.301,129.599L61.301,124.523L84.928,124.523L84.928,112.709L81.56,112.709L81.56,109.34L78.191,109.34L78.191,105.972L61.301,105.972L61.301,109.34L57.932,109.34L57.932,112.709L54.563,112.709L54.563,132.968L57.932,132.968L57.932,136.337L61.301,136.337L61.301,139.706L78.191,139.706ZM61.301,119.47L61.301,116.078L64.67,116.078L64.67,112.709L74.799,112.709L74.799,116.078L78.191,116.078L78.191,119.47L61.301,119.47Z" style="fill:rgb(0,255,0);fill-rule:nonzero;"/>
        </g>
        <g transform="matrix(4.166667,0,0,16.423358,0,-1366.390511)">
            <path d="M102.801,139.706L102.801,129.599L106.17,129.599L106.17,116.078L109.562,116.078L109.562,129.599L112.931,129.599L112.931,139.706L123.06,139.706L123.06,129.599L126.429,129.599L126.429,116.078L129.798,116.078L129.798,105.972L123.06,105.972L123.06,116.078L119.668,116.078L119.668,129.599L114.615,129.599L114.615,116.078L111.246,116.078L111.246,105.972L104.486,105.972L104.486,116.078L101.117,116.078L101.117,129.599L96.041,129.599L96.041,116.078L92.672,116.078L92.672,105.972L85.934,105.972L85.934,116.078L89.303,116.078L89.303,129.599L92.672,129.599L92.672,139.706L102.801,139.706Z" style="fill:rgb(0,255,0);fill-rule:nonzero;"/>
        </g>
        <g transform="matrix(4.166667,0,0,16.423358,0,-1366.390511)">
            <path d="M154.431,139.706L154.431,136.337L157.8,136.337L157.8,132.968L161.169,132.968L161.169,112.709L157.8,112.709L157.8,109.34L154.431,109.34L154.431,105.972L137.541,105.972L137.541,109.34L134.173,109.34L134.173,112.709L130.804,112.709L130.804,132.968L134.173,132.968L134.173,136.337L137.541,136.337L137.541,139.706L154.431,139.706ZM140.91,132.968L140.91,129.599L137.541,129.599L137.541,116.078L140.91,116.078L140.91,112.709L151.04,112.709L151.04,116.078L154.431,116.078L154.431,129.599L151.04,129.599L151.04,132.968L140.91,132.968Z" style="fill:rgb(0,255,0);fill-rule:nonzero;"/>
        </g>
        <g transform="matrix(4.166667,0,0,16.423358,0,-1366.390511)">
            <path d="M172.281,139.706L172.281,116.078L175.65,116.078L175.65,112.709L184.095,112.709L184.095,105.972L175.65,105.972L175.65,109.34L172.281,109.34L172.281,105.972L165.544,105.972L165.544,139.706L172.281,139.706Z" style="fill:rgb(0,255,0);fill-rule:nonzero;"/>
        </g>
        <g transform="matrix(4.166667,0,0,16.423358,0,-1588.467153)">
            <path d="M193.523,153.228L193.523,139.729L196.892,139.729L196.892,143.121L200.284,143.121L200.284,146.49L203.652,146.49L203.652,149.859L207.021,149.859L207.021,153.228L215.466,153.228L215.466,149.859L212.098,149.859L212.098,146.49L208.706,146.49L208.706,143.121L205.337,143.121L205.337,139.729L201.968,139.729L201.968,132.992L205.337,132.992L205.337,129.6L208.706,129.6L208.706,126.231L212.098,126.231L212.098,122.862L215.466,122.862L215.466,119.494L207.021,119.494L207.021,122.862L203.652,122.862L203.652,126.231L200.284,126.231L200.284,129.6L196.892,129.6L196.892,132.992L193.523,132.992L193.523,105.972L186.786,105.972L186.786,153.228L193.523,153.228Z" style="fill:rgb(0,255,0);fill-rule:nonzero;"/>
        </g>
        <g transform="matrix(-4.166667,0,0,16.423358,863.695833,-1144.346715)">
            <path d="M101.117,116.079L106.17,116.079" style="fill:none;fill-rule:nonzero;stroke:black;stroke-width:0.24px;"/>
        </g>
        <g transform="matrix(4.166667,0,0,16.423358,0,-1958.266971)">
            <path d="M222.821,136.99L222.821,133.792C222.821,133.604 222.974,133.452 223.162,133.452L224.585,133.452L224.585,132.028C224.585,131.84 224.738,131.687 224.926,131.687L226.348,131.687L226.348,130.265C226.348,130.077 226.501,129.924 226.689,129.924L229.888,129.924L229.888,128.489C229.888,128.301 230.041,128.148 230.229,128.148L237.295,128.148C237.484,128.148 237.636,128.301 237.636,128.489L237.636,129.924L240.834,129.924C241.023,129.924 241.175,130.077 241.175,130.265L241.175,131.687L242.598,131.687C242.786,131.687 242.938,131.84 242.938,132.028L242.938,133.452L244.362,133.452C244.55,133.452 244.702,133.604 244.702,133.792L244.702,136.99L246.138,136.99C246.326,136.99 246.479,137.143 246.479,137.331L246.479,144.398C246.479,144.586 246.326,144.739 246.138,144.739L244.702,144.739L244.702,147.937C244.702,148.125 244.55,148.278 244.362,148.278L242.938,148.278L242.938,149.701C242.938,149.889 242.786,150.042 242.598,150.042L241.175,150.042L241.175,151.464C241.175,151.652 241.023,151.805 240.834,151.805L237.636,151.805L237.636,153.228C237.636,153.416 237.484,153.569 237.295,153.569L230.229,153.569C230.041,153.569 229.888,153.416 229.888,153.228L229.888,151.805L226.689,151.805C226.501,151.805 226.348,151.652 226.348,151.464L226.348,150.042L224.926,150.042C224.738,150.042 224.585,149.889 224.585,149.701L224.585,148.278L223.162,148.278C222.974,148.278 222.821,148.125 222.821,147.937L222.821,144.739L221.399,144.739C221.211,144.739 221.058,144.586 221.058,144.398L221.058,137.331C221.058,137.143 221.211,136.99 221.399,136.99L222.821,136.99ZM223.503,144.057L224.926,144.057C225.114,144.057 225.266,144.209 225.266,144.397L225.266,147.596L226.69,147.596C226.878,147.596 227.03,147.749 227.03,147.937L227.03,149.359L230.228,149.359C230.417,149.359 230.569,149.512 230.569,149.7L230.569,151.123L236.954,151.123L236.954,149.7C236.954,149.512 237.107,149.359 237.295,149.359L240.493,149.359L240.493,147.937C240.493,147.749 240.646,147.596 240.834,147.596L242.257,147.596L242.257,144.397C242.257,144.209 242.41,144.057 242.598,144.057L244.021,144.057L244.021,137.673L242.598,137.673C242.41,137.673 242.257,137.52 242.257,137.332L242.257,134.133L240.834,134.133C240.646,134.133 240.493,133.98 240.493,133.792L240.493,132.37L237.295,132.37C237.107,132.37 236.954,132.217 236.954,132.029L236.954,130.606L230.569,130.606L230.569,132.029C230.569,132.217 230.417,132.37 230.228,132.37L227.03,132.37L227.03,133.792C227.03,133.98 226.878,134.133 226.69,134.133L225.266,134.133L225.266,137.332C225.266,137.52 225.114,137.673 224.926,137.673L223.503,137.673L223.503,144.057ZM237.636,135.227L239.059,135.227C239.247,135.227 239.399,135.38 239.399,135.568L239.399,140.859C239.399,141.047 239.247,141.2 239.059,141.2L237.636,141.2L237.636,142.634C237.636,142.822 237.483,142.975 237.295,142.975L235.873,142.975L235.873,144.057L237.296,144.057C237.484,144.057 237.636,144.21 237.636,144.398L237.636,145.82L239.059,145.82C239.247,145.82 239.399,145.973 239.399,146.161L239.399,147.937C239.399,148.125 239.247,148.278 239.059,148.278L237.295,148.278C237.107,148.278 236.954,148.125 236.954,147.937L236.954,146.503L235.532,146.503C235.344,146.503 235.191,146.35 235.191,146.162L235.191,144.739L233.768,144.739C233.58,144.739 233.427,144.586 233.427,144.398L233.427,142.975L230.57,142.975L230.57,147.937C230.57,148.125 230.417,148.278 230.229,148.278L228.465,148.278C228.277,148.278 228.124,148.125 228.124,147.937L228.124,133.792C228.124,133.603 228.277,133.451 228.465,133.451L237.295,133.451C237.483,133.451 237.636,133.603 237.636,133.792L237.636,135.227ZM236.954,140.518L236.954,135.909L230.57,135.909L230.57,140.518L236.954,140.518Z" style="fill:rgb(0,255,0);"/>
        </g>
    </g>
</svg>
